# xmcd
#
# Track frame offsets:
#      150
#      18585
#      34845
#      50924
#      67595
#      97622
#      114132
#      125479
#      144018
# 
# Disc length: 2061 seconds
#
# Revision: 7
# Processed by: cddbd v1.4PL0 Copyright (c) Steve Scherf et al.
#
# Submitted via: FreeRIP 1.21
#
DISCID=67080b09
DTITLE=Olga batikt T-Shirts - Olga batikt T-Shirts
DYEAR=2002
DGENRE=Pop
TTITLE0=X-Border Hymn
TTITLE1=I feel like a Butterfly
TTITLE2=What is wrong what is right
TTITLE3=Party in the bus
TTITLE4=Hey...
TTITLE5=Greedy Hail
TTITLE6=Dupa
TTITLE7=Chor de Teresa
TTITLE8=Smash
EXTD=YEAR: 1999 ID3G:  12
EXTT0=
EXTT1=
EXTT2=
EXTT3=
EXTT4=
EXTT5=
EXTT6=
EXTT7=
EXTT8=
PLAYORDER=
